<?xml version="1.0"?>
<svg width="800" height="800" xmlns="http://www.w3.org/2000/svg" xmlns:svg="http://www.w3.org/2000/svg">
 <defs>
  <clipPath id="clip0_0_1">
   <rect fill="white" height="800" id="svg_1" width="800"/>
  </clipPath>
  <clipPath id="clip1_0_1">
   <rect fill="white" height="65" id="svg_2" transform="translate(421 233)" width="66"/>
  </clipPath>
 </defs>
 <g class="layer">
  <title>Layer 1</title>
  <rect fill="none" height="800" id="svg_3" width="800"/>
  <g clip-path="url(#clip0_0_1)" id="svg_4">
   <path d="m800,232.55c0,27.41 -15,51.31 -37.25,63.93c-10.68,6.09 -23.05,9.55 -36.23,9.55l-202.72,0l0,-88.73l260.96,0c4.2,0 8.01,1.71 10.78,4.46c2.75,2.77 4.46,6.58 4.46,10.79z" fill="#B6DCFF" id="svg_5" stroke="black" stroke-width="1.56"/>
   <path d="m762.85,292.23c0,1.42 -0.03,2.84 -0.1,4.25c-10.69,6.09 -23.05,9.55 -36.23,9.55l-202.72,0l0,-51.57l201.27,0c20.83,0 37.78,16.94 37.78,37.77z" fill="#8ECBFD" id="svg_6" stroke="black" stroke-width="1.56"/>
   <path d="m740.31,292.23c0,27.41 -15,51.3 -37.24,63.92c-10.69,6.09 -23.05,9.55 -36.24,9.55l-143.03,0l0,-88.71l201.27,0c4.2,0 8.02,1.71 10.79,4.46c2.75,2.77 4.45,6.58 4.45,10.78z" fill="#DAEDFF" id="svg_7" stroke="black" stroke-width="1.56"/>
   <path d="m703.16,351.92c0,1.42 -0.03,2.83 -0.09,4.23c-10.69,6.09 -23.05,9.55 -36.24,9.55l-143.03,0l0,-51.56l141.58,0c20.83,0 37.78,16.95 37.78,37.78z" fill="#B6DCFF" id="svg_8" stroke="black" stroke-width="1.56"/>
   <path d="m665.38,336.67l-141.58,0l0,88.72l83.35,0c40.58,0 73.48,-32.89 73.48,-73.47c0,-8.42 -6.83,-15.25 -15.25,-15.25z" fill="#DAEDFF" id="svg_9" stroke="black" stroke-width="1.56"/>
   <path d="m276.2,217.3l0,88.73l-202.72,0c-13.18,0 -25.54,-3.46 -36.23,-9.55c-22.25,-12.62 -37.25,-36.52 -37.25,-63.93c0,-4.21 1.71,-8.02 4.46,-10.79c2.77,-2.75 6.58,-4.46 10.78,-4.46l260.96,0z" fill="#B6DCFF" id="svg_10" stroke="black" stroke-width="1.56"/>
   <path d="m276.2,254.46l0,51.57l-202.72,0c-13.18,0 -25.54,-3.46 -36.23,-9.55c-0.07,-1.41 -0.1,-2.83 -0.1,-4.25c0,-20.83 16.95,-37.77 37.78,-37.77l201.27,0z" fill="#8ECBFD" id="svg_11" stroke="black" stroke-width="1.56"/>
   <path d="m276.2,276.99l0,88.71l-143.03,0c-13.19,0 -25.55,-3.46 -36.24,-9.55c-22.24,-12.62 -37.24,-36.51 -37.24,-63.92c0,-4.2 1.7,-8.01 4.46,-10.78c2.76,-2.76 6.58,-4.46 10.78,-4.46l201.27,0l0,0z" fill="#DAEDFF" id="svg_12" stroke="black" stroke-width="1.56"/>
   <path d="m276.2,314.14l0,51.56l-143.03,0c-13.19,0 -25.55,-3.46 -36.24,-9.55c-0.06,-1.4 -0.09,-2.81 -0.09,-4.23c0,-20.83 16.95,-37.78 37.78,-37.78l141.58,0z" fill="#B6DCFF" id="svg_13" stroke="black" stroke-width="1.56"/>
   <path d="m134.62,336.67l141.58,0l0,88.72l-83.35,0c-40.58,0 -73.48,-32.89 -73.48,-73.47c0,-8.42 6.83,-15.25 15.25,-15.25z" fill="#DAEDFF" id="svg_14" stroke="black" stroke-width="1.56"/>
   <path d="m399.88,557.77c120.34,0 217.89,-97.55 217.89,-217.89c0,-120.33 -97.55,-217.88 -217.89,-217.88c-120.33,0 -217.88,97.55 -217.88,217.88c0,120.34 97.55,217.89 217.88,217.89z" fill="#FFB54E" id="svg_15" stroke="black" stroke-width="1.56"/>
   <path d="m400.37,533.12c102.54,0 185.67,-83.13 185.67,-185.68c0,-102.55 -83.13,-185.68 -185.67,-185.68c-102.55,0 -185.68,83.13 -185.68,185.68c0,102.55 83.13,185.68 185.68,185.68z" fill="#FF9A1B" id="svg_16" stroke="black" stroke-width="1.56"/>
   <path d="m400,509.37c89.43,0 161.93,-72.5 161.93,-161.93c0,-89.43 -72.5,-161.93 -161.93,-161.93c-89.43,0 -161.93,72.5 -161.93,161.93c0,89.43 72.5,161.93 161.93,161.93z" fill="#FFCE8B" id="svg_17" stroke="black" stroke-width="1.56"/>
   <path d="m562.3,347.44c0,89.43 -72.51,161.94 -161.93,161.94c-4.97,0 -9.89,-0.23 -14.75,-0.67c82.51,-7.45 147.17,-76.82 147.17,-161.27c0,-84.46 -64.66,-153.81 -147.17,-161.26c4.86,-0.44 9.78,-0.66 14.75,-0.66c89.42,0 161.93,72.49 161.93,161.92z" fill="#FFB54E" id="svg_18" stroke="black" stroke-width="1.56"/>
   <path d="m767.48,612.43l27.06,30.92c9.24,10.56 1.74,27.09 -12.3,27.09l-187.51,0c-9.02,0 -16.34,-7.31 -16.34,-16.34l0,-103.33l205.24,0c13.81,0 21.39,16.06 12.61,26.72l-28.76,34.94z" fill="#E84649" id="svg_19" stroke="black" stroke-width="1.56"/>
   <path d="m675.53,550.77l0,26.68c0,21.61 -17.57,39.21 -39.21,39.21l-57.93,0l0,-65.89l97.14,0l0,0z" fill="#D73337" id="svg_20" stroke="black" stroke-width="1.56"/>
   <path d="m221.61,550.77l0,103.34c0,9.02 -7.32,16.33 -16.34,16.33l-187.51,0c-14.04,0 -21.54,-16.53 -12.3,-27.09l27.06,-30.92l-28.76,-34.94c-8.78,-10.66 -1.2,-26.72 12.61,-26.72l205.24,0z" fill="#E84649" id="svg_21" stroke="black" stroke-width="1.56"/>
   <path d="m124.47,550.77l97.14,0l0,65.89l-57.93,0c-21.64,0 -39.21,-17.6 -39.21,-39.21l0,-26.68z" fill="#D73337" id="svg_22" stroke="black" stroke-width="1.56"/>
   <path d="m636.33,593.79l-472.66,0c-9.02,0 -16.34,-7.32 -16.34,-16.34l0,-70.81c0,-9.03 7.32,-16.34 16.34,-16.34l472.66,0c9.03,0 16.34,7.31 16.34,16.34l0,70.81c0,9.02 -7.31,16.34 -16.34,16.34z" fill="#ED6264" id="svg_23" stroke="black" stroke-width="1.56"/>
   <path d="m652.66,506.64l0,70.81c0,9.02 -7.3,16.34 -16.34,16.34l-38.34,0c9.03,0 16.34,-7.32 16.34,-16.34l0,-70.81c0,-9.03 -7.31,-16.34 -16.34,-16.34l38.34,0c9.04,0 16.34,7.31 16.34,16.34z" fill="#E84649" id="svg_24" stroke="black" stroke-width="1.56"/>
   <path d="m191.07,568l0,-44.8l22.98,0l0,7.68l-14.21,0l0,10.69l12.67,0l0,7.42l-12.67,0l0,11.59l14.46,0l0,7.42l-23.23,0zm42.08,-32.7l6.78,0c1.88,2.38 3.16,4.78 3.84,7.16c0.68,2.39 1.03,5.38 1.03,8.96l0,16.58l-8.52,0l0,-17.22c0,-4.05 -0.55,-6.97 -1.66,-8.76l-7.17,0l0,25.98l-8.51,0l0,-32.7l6.65,0l1.16,2.3c0.94,-0.85 1.81,-1.45 2.62,-1.79c0.85,-0.34 2.11,-0.51 3.78,-0.51zm31.7,6.72l-4.8,0c-0.64,0.76 -1.17,1.83 -1.6,3.2c-0.39,1.36 -0.58,2.68 -0.58,3.96l9.15,0c0.09,-1.28 -0.08,-2.6 -0.51,-3.96c-0.42,-1.41 -0.98,-2.48 -1.66,-3.2zm8.7,19.26l0,6.72l-16.25,0c-2.99,-2 -5.1,-4.48 -6.34,-7.42c-1.19,-2.99 -1.79,-6 -1.79,-9.03c0,-7 2.64,-12.41 7.94,-16.25l10.36,0c2.86,2.09 4.8,4.31 5.83,6.65c1.02,2.35 1.53,4.72 1.53,7.11c0,2.39 -0.19,4.43 -0.57,6.14l-15.94,0c0.13,0.98 0.49,2.11 1.09,3.39c0.64,1.24 1.32,2.14 2.05,2.69l12.09,0zm5.64,6.72l0,-32.7l6.08,0l1.6,3.45c1.71,-2.3 3.86,-3.45 6.46,-3.45l2.5,0l0,8.57l-8.13,0l0,24.13l-8.51,0zm43.89,-32.7l0,29.31c0,3.24 -0.42,5.84 -1.28,7.81c-0.81,1.96 -2.45,3.69 -4.92,5.18l-14.6,0l0,-6.66l10.95,0c1.06,-0.64 1.6,-1.66 1.6,-3.07l0,-3.77c-1.58,1.32 -4.1,1.98 -7.56,1.98l-4.67,0c-3.45,-4.14 -5.18,-8.94 -5.18,-14.4c0,-3.93 0.55,-7.13 1.66,-9.6c1.11,-2.52 2.73,-4.78 4.87,-6.78l4.73,0c2.78,0 4.97,0.89 6.59,2.68l1.16,-2.68l6.65,0zm-8.51,6.72l-6.21,0c-1.53,2.64 -2.3,5.69 -2.3,9.15c0,3.41 0.66,6.23 1.98,8.45l6.53,0l0,-17.6zm13.74,-6.72l8.45,0l0,32.7l-8.45,0l0,-32.7zm-2.24,-7.43l2.56,5.19l11.4,-5l-3.01,-6.59l-10.95,6.4zm31.61,25.35l-6.85,0c-0.9,1.11 -1.35,2.49 -1.35,4.16c0,1.66 0.47,2.96 1.41,3.9l6.79,0l0,-8.06zm-13.76,-17.92l15.87,0c2.56,1.53 4.24,3.3 5.05,5.31c0.81,1.96 1.22,4.65 1.22,8.06l0,9.6c0,3.54 0.08,6.79 0.26,9.73l-7.3,0l-1.15,-2.3c-1.67,1.53 -4.01,2.3 -7.04,2.3l-4.03,0c-3.63,-2.39 -5.44,-5.82 -5.44,-10.3c0,-4.53 1.85,-8.09 5.56,-10.69l6.02,0c1.66,0 3.22,0.51 4.67,1.53l0,-3.2c0,-1.66 -0.72,-2.77 -2.17,-3.32l-11.52,0l0,-6.72zm46.85,-4.42l0,16l5.7,0c2.35,-1.92 3.52,-4.74 3.52,-8.45c0,-1.58 -0.32,-3.07 -0.96,-4.48c-0.6,-1.41 -1.32,-2.43 -2.17,-3.07l-6.09,0zm-8.64,37.12l0,-44.8l17.35,0c2.9,1.28 5.18,3.24 6.85,5.89c1.7,2.64 2.56,5.74 2.56,9.28c0,3.5 -0.88,6.74 -2.63,9.73c-1.75,2.98 -4.33,5.1 -7.74,6.33l-7.75,0l0,13.57l-8.64,0zm49.33,0l-13.95,0c-4.27,-3.97 -6.4,-9.39 -6.4,-16.26c0,-3.45 0.46,-6.46 1.4,-9.02c0.99,-2.56 2.52,-5.04 4.61,-7.42l14.98,0c2.22,2.56 3.73,5.05 4.54,7.48c0.81,2.39 1.22,5.38 1.22,8.96c0,6.87 -2.13,12.29 -6.4,16.26zm-9.41,-6.72l4.86,0c1.54,-2.99 2.31,-6.38 2.31,-10.18c0,-3.79 -0.79,-6.82 -2.37,-9.08l-4.8,0c-1.54,2.17 -2.3,5.26 -2.3,9.28c0,3.96 0.76,7.29 2.3,9.98zm22.59,-25.98l14.14,0l0,6.72l-9.98,0l6.08,9.02c2.73,3.88 4.25,6.55 4.54,8c0.17,0.68 0.26,1.39 0.26,2.11c0,3.03 -1.13,5.31 -3.39,6.85l-16.32,0l0,-6.72l11.71,0l-6.85,-10.05c-0.3,-0.47 -0.77,-1.13 -1.41,-1.98c-0.59,-0.86 -1.06,-1.54 -1.4,-2.05c-0.35,-0.56 -0.58,-0.96 -0.71,-1.22c-0.13,-0.25 -0.3,-0.57 -0.51,-0.96c-0.21,-0.42 -0.36,-0.78 -0.45,-1.08c-0.17,-0.81 -0.25,-1.48 -0.25,-1.99c0,-3.11 1.51,-5.33 4.54,-6.65zm19.17,32.7l0,-32.7l8.45,0l0,32.7l-8.45,0zm0,-44.8l8.45,0l0,8.64l-8.45,0l0,-8.64zm15.86,30.53l0,-11.71l-4.41,0l0,-6.72l4.41,0l0,-8.9l8.51,0l0,8.9l5.25,0l0,6.72l-5.25,0l0,13.76c0,2.6 0.45,4.43 1.35,5.5l3.9,0l0,6.72l-9.09,0c-2.26,-2.09 -3.62,-4.35 -4.09,-6.78c-0.39,-2.05 -0.58,-4.55 -0.58,-7.49zm18.02,14.27l0,-32.7l8.45,0l0,32.7l-8.45,0zm0,-44.8l8.45,0l0,8.64l-8.45,0l0,-8.64zm32.24,44.8l-11.84,0c-2.05,-1.66 -3.67,-3.86 -4.86,-6.59c-1.2,-2.73 -1.79,-5.76 -1.79,-9.09l0,-17.02l8.51,0l0,16.76c0,3.76 0.7,6.83 2.11,9.22l3.9,0c1.41,-2.52 2.12,-5.57 2.12,-9.15l0,-16.83l8.51,0l0,16.7c0,3.37 -0.6,6.46 -1.8,9.28c-1.19,2.82 -2.81,5.06 -4.86,6.72zm26.43,-14.78l-6.84,0c-0.9,1.11 -1.35,2.49 -1.35,4.16c0,1.66 0.47,2.96 1.41,3.9l6.78,0l0,-8.06zm-13.76,-17.92l15.88,0c2.56,1.53 4.24,3.3 5.05,5.31c0.81,1.96 1.22,4.65 1.22,8.06l0,9.6c0,3.54 0.08,6.79 0.25,9.73l-7.29,0l-1.15,-2.3c-1.67,1.53 -4.02,2.3 -7.04,2.3l-4.04,0c-3.62,-2.39 -5.44,-5.82 -5.44,-10.3c0,-4.53 1.86,-8.09 5.57,-10.69l6.02,0c1.66,0 3.22,0.51 4.67,1.53l0,-3.2c0,-1.66 -0.73,-2.77 -2.18,-3.32l-11.52,0l0,-6.72z" fill="white" id="svg_25"/>
   <path d="m407.49,223.81l-18.61,98.55l67.43,0.22l-91.79,133.6l18.62,-108.42l-67.44,-0.24l91.79,-123.71zm0.01,-16.62c-0.45,0 -0.89,0.02 -1.33,0.05c-2.91,0.23 -4.84,1.22 -7.13,2.77c-1.27,0.85 -2.43,1.89 -3.45,3.1c-0.31,0.36 -0.59,0.73 -0.85,1.11l-92.46,123.29c-3.65,5.05 -4.19,11.7 -1.39,17.26c2.81,5.56 8.47,9.09 14.68,9.14l47.63,0.35l-14.98,88.89c-1.42,7.64 2.63,15.25 9.74,18.32c2.12,0.91 4.35,1.35 6.54,1.35c5.19,0 9.45,-2.44 12.65,-6.85l92.56,-133.6c3.65,-5.05 4.19,-11.7 1.39,-17.26c-2.81,-5.56 -8.47,-9.08 -14.68,-9.12l-47.62,-0.09l14.81,-78.15c0.32,-1.26 0.47,-2.56 0.47,-3.91c0,-8.99 -7.1,-16.33 -16,-16.62c-0.19,0 -0.38,0 -0.58,0l0,-0.03z" fill="#FFA730" id="svg_26"/>
   <g clip-path="url(#clip1_0_1)" id="svg_27">
    <path clip-rule="evenodd" d="m478.75,269.56l-20.62,0l0,20.32c0,2.23 -1.85,4.06 -4.13,4.06c-2.28,0 -4.12,-1.83 -4.12,-4.06l0,-20.32l-20.63,0c-2.28,0 -4.12,-1.83 -4.12,-4.06c0,-2.23 1.84,-4.06 4.12,-4.06l20.63,0l0,-20.31c0,-2.24 1.84,-4.07 4.12,-4.07c2.28,0 4.13,1.83 4.13,4.07l0,20.31l20.62,0c2.28,0 4.13,1.83 4.13,4.06c0,2.23 -1.85,4.06 -4.13,4.06zm0,-12.18l-16.5,0l0,-16.25c0,-4.49 -3.69,-8.13 -8.25,-8.13c-4.56,0 -8.25,3.64 -8.25,8.13l0,16.25l-16.5,0c-4.56,0 -8.25,3.63 -8.25,8.12c0,4.49 3.69,8.13 8.25,8.13l16.5,0l0,16.25c0,4.48 3.69,8.12 8.25,8.12c4.56,0 8.25,-3.64 8.25,-8.12l0,-16.25l16.5,0c4.56,0 8.25,-3.64 8.25,-8.13c0,-4.49 -3.69,-8.12 -8.25,-8.12z" fill="#FFA730" fill-rule="evenodd" id="svg_28"/>
   </g>
  </g>
 </g>
</svg>