<?xml version="1.0"?>
<svg width="800" height="800" xmlns="http://www.w3.org/2000/svg" xmlns:svg="http://www.w3.org/2000/svg">
 <defs>
  <clipPath id="clip0_0_1">
   <rect fill="white" height="800" id="svg_1" width="800"/>
  </clipPath>
 </defs>
 <g class="layer">
  <title>Layer 1</title>
  <rect fill="none" height="800" id="svg_2" width="800"/>
  <g clip-path="url(#clip0_0_1)" id="svg_3">
   <path d="m800,286.55c0,27.41 -15,51.31 -37.25,63.93c-10.68,6.09 -23.05,9.55 -36.23,9.55l-202.72,0l0,-88.73l260.96,0c4.2,0 8.01,1.71 10.78,4.46c2.75,2.77 4.46,6.58 4.46,10.79z" fill="#B6DCFF" id="svg_4" stroke="black" stroke-width="1.56"/>
   <path d="m762.85,346.23c0,1.42 -0.03,2.84 -0.1,4.25c-10.69,6.09 -23.05,9.55 -36.23,9.55l-202.72,0l0,-51.57l201.27,0c20.83,0 37.78,16.94 37.78,37.77z" fill="#8ECBFD" id="svg_5" stroke="black" stroke-width="1.56"/>
   <path d="m740.31,346.23c0,27.41 -15,51.3 -37.24,63.92c-10.69,6.09 -23.05,9.55 -36.24,9.55l-143.03,0l0,-88.71l201.27,0c4.2,0 8.02,1.71 10.79,4.46c2.75,2.77 4.45,6.58 4.45,10.78z" fill="#DAEDFF" id="svg_6" stroke="black" stroke-width="1.56"/>
   <path d="m703.16,405.92c0,1.42 -0.03,2.83 -0.09,4.23c-10.69,6.09 -23.05,9.55 -36.24,9.55l-143.03,0l0,-51.56l141.58,0c20.83,0 37.78,16.95 37.78,37.78z" fill="#B6DCFF" id="svg_7" stroke="black" stroke-width="1.56"/>
   <path d="m665.38,390.67l-141.58,0l0,88.72l83.35,0c40.58,0 73.48,-32.89 73.48,-73.47c0,-8.42 -6.83,-15.25 -15.25,-15.25z" fill="#DAEDFF" id="svg_8" stroke="black" stroke-width="1.56"/>
   <path d="m276.2,271.3l0,88.73l-202.72,0c-13.18,0 -25.54,-3.46 -36.23,-9.55c-22.25,-12.62 -37.25,-36.52 -37.25,-63.93c0,-4.21 1.71,-8.02 4.46,-10.79c2.77,-2.75 6.58,-4.46 10.78,-4.46l260.96,0z" fill="#B6DCFF" id="svg_9" stroke="black" stroke-width="1.56"/>
   <path d="m276.2,308.46l0,51.57l-202.72,0c-13.18,0 -25.54,-3.46 -36.23,-9.55c-0.07,-1.41 -0.1,-2.83 -0.1,-4.25c0,-20.83 16.95,-37.77 37.78,-37.77l201.27,0z" fill="#8ECBFD" id="svg_10" stroke="black" stroke-width="1.56"/>
   <path d="m276.2,330.99l0,88.71l-143.03,0c-13.19,0 -25.55,-3.46 -36.24,-9.55c-22.24,-12.62 -37.24,-36.51 -37.24,-63.92c0,-4.2 1.7,-8.01 4.46,-10.78c2.76,-2.76 6.58,-4.46 10.78,-4.46l201.27,0l0,0z" fill="#DAEDFF" id="svg_11" stroke="black" stroke-width="1.56"/>
   <path d="m276.2,368.14l0,51.56l-143.03,0c-13.19,0 -25.55,-3.46 -36.24,-9.55c-0.06,-1.4 -0.09,-2.81 -0.09,-4.23c0,-20.83 16.95,-37.78 37.78,-37.78l141.58,0z" fill="#B6DCFF" id="svg_12" stroke="black" stroke-width="1.56"/>
   <path d="m134.62,390.67l141.58,0l0,88.72l-83.35,0c-40.58,0 -73.48,-32.89 -73.48,-73.47c0,-8.42 6.83,-15.25 15.25,-15.25z" fill="#DAEDFF" id="svg_13" stroke="black" stroke-width="1.56"/>
   <path d="m399.88,611.77c120.34,0 217.89,-97.55 217.89,-217.89c0,-120.33 -97.55,-217.88 -217.89,-217.88c-120.33,0 -217.88,97.55 -217.88,217.88c0,120.34 97.55,217.89 217.88,217.89z" fill="#FFB54E" id="svg_14" stroke="black" stroke-width="1.56"/>
   <path d="m400.37,587.12c102.54,0 185.67,-83.13 185.67,-185.68c0,-102.55 -83.13,-185.68 -185.67,-185.68c-102.55,0 -185.68,83.13 -185.68,185.68c0,102.55 83.13,185.68 185.68,185.68z" fill="#FF9A1B" id="svg_15" stroke="black" stroke-width="1.56"/>
   <path d="m400,563.37c89.43,0 161.93,-72.5 161.93,-161.93c0,-89.43 -72.5,-161.93 -161.93,-161.93c-89.43,0 -161.93,72.5 -161.93,161.93c0,89.43 72.5,161.93 161.93,161.93z" fill="#FFCE8B" id="svg_16" stroke="black" stroke-width="1.56"/>
   <path d="m562.3,401.44c0,89.43 -72.51,161.94 -161.93,161.94c-4.97,0 -9.89,-0.23 -14.75,-0.67c82.51,-7.45 147.17,-76.82 147.17,-161.27c0,-84.46 -64.66,-153.81 -147.17,-161.26c4.86,-0.44 9.78,-0.66 14.75,-0.66c89.42,0 161.93,72.49 161.93,161.92z" fill="#FFB54E" id="svg_17" stroke="black" stroke-width="1.56"/>
   <path d="m767.48,666.43l27.06,30.92c9.24,10.56 1.74,27.09 -12.3,27.09l-187.51,0c-9.02,0 -16.34,-7.31 -16.34,-16.34l0,-103.33l205.24,0c13.81,0 21.39,16.06 12.61,26.72l-28.76,34.94z" fill="#E84649" id="svg_18" stroke="black" stroke-width="1.56"/>
   <path d="m675.53,604.77l0,26.68c0,21.61 -17.57,39.21 -39.21,39.21l-57.93,0l0,-65.89l97.14,0l0,0z" fill="#D73337" id="svg_19" stroke="black" stroke-width="1.56"/>
   <path d="m221.61,604.77l0,103.34c0,9.02 -7.32,16.33 -16.34,16.33l-187.51,0c-14.04,0 -21.54,-16.53 -12.3,-27.09l27.06,-30.92l-28.76,-34.94c-8.78,-10.66 -1.2,-26.72 12.61,-26.72l205.24,0z" fill="#E84649" id="svg_20" stroke="black" stroke-width="1.56"/>
   <path d="m124.47,604.77l97.14,0l0,65.89l-57.93,0c-21.64,0 -39.21,-17.6 -39.21,-39.21l0,-26.68z" fill="#D73337" id="svg_21" stroke="black" stroke-width="1.56"/>
   <path d="m636.33,647.79l-472.66,0c-9.02,0 -16.34,-7.32 -16.34,-16.34l0,-70.81c0,-9.03 7.32,-16.34 16.34,-16.34l472.66,0c9.03,0 16.34,7.31 16.34,16.34l0,70.81c0,9.02 -7.31,16.34 -16.34,16.34z" fill="#ED6264" id="svg_22" stroke="black" stroke-width="1.56"/>
   <path d="m652.66,560.64l0,70.81c0,9.02 -7.3,16.34 -16.34,16.34l-38.34,0c9.03,0 16.34,-7.32 16.34,-16.34l0,-70.81c0,-9.03 -7.31,-16.34 -16.34,-16.34l38.34,0c9.04,0 16.34,7.31 16.34,16.34z" fill="#E84649" id="svg_23" stroke="black" stroke-width="1.56"/>
   <path d="m178.07,576.2l17.03,0c2.68,0.9 4.97,2.56 6.84,4.99c1.92,2.39 2.88,5.33 2.88,8.83c0,5.72 -2.26,9.92 -6.78,12.61l6.46,18.37l-8.96,0l-5.44,-16.32l-3.39,0l0,16.32l-8.64,0l0,-44.8zm8.64,7.68l0,13.63l5.51,0c0.72,-0.17 1.51,-0.89 2.36,-2.17c0.9,-1.33 1.35,-2.86 1.35,-4.61c0,-1.75 -0.39,-3.29 -1.15,-4.61c-0.73,-1.32 -1.46,-2.07 -2.18,-2.24l-5.89,0zm35.58,11.14l-4.8,0c-0.64,0.76 -1.18,1.83 -1.6,3.2c-0.39,1.36 -0.58,2.68 -0.58,3.96l9.15,0c0.09,-1.28 -0.08,-2.6 -0.51,-3.96c-0.43,-1.41 -0.98,-2.48 -1.66,-3.2zm8.7,19.26l0,6.72l-16.26,0c-2.98,-2 -5.1,-4.48 -6.33,-7.42c-1.2,-2.99 -1.79,-6 -1.79,-9.03c0,-7 2.64,-12.41 7.93,-16.25l10.37,0c2.86,2.09 4.8,4.31 5.82,6.65c1.03,2.35 1.54,4.72 1.54,7.11c0,2.39 -0.19,4.43 -0.58,6.14l-15.93,0c0.13,0.98 0.49,2.11 1.09,3.39c0.64,1.24 1.32,2.14 2.04,2.69l12.1,0zm7.77,-25.98l14.15,0l0,6.72l-9.98,0l6.07,9.02c2.74,3.88 4.25,6.55 4.55,8c0.17,0.68 0.26,1.39 0.26,2.11c0,3.03 -1.14,5.31 -3.4,6.85l-16.32,0l0,-6.72l11.72,0l-6.85,-10.05c-0.3,-0.47 -0.77,-1.13 -1.41,-1.98c-0.6,-0.86 -1.07,-1.54 -1.41,-2.05c-0.34,-0.56 -0.58,-0.96 -0.7,-1.22c-0.13,-0.25 -0.3,-0.57 -0.52,-0.96c-0.21,-0.42 -0.36,-0.78 -0.44,-1.08c-0.17,-0.81 -0.26,-1.48 -0.26,-1.99c0,-3.11 1.52,-5.33 4.54,-6.65zm38.01,32.7l-13.95,0c-4.27,-3.97 -6.4,-9.39 -6.4,-16.26c0,-3.45 0.47,-6.46 1.41,-9.02c0.98,-2.56 2.51,-5.04 4.61,-7.42l14.97,0c2.22,2.56 3.73,5.05 4.54,7.48c0.81,2.39 1.22,5.38 1.22,8.96c0,6.87 -2.13,12.29 -6.4,16.26zm-9.41,-6.72l4.87,0c1.53,-2.99 2.3,-6.38 2.3,-10.18c0,-3.79 -0.79,-6.82 -2.37,-9.08l-4.8,0c-1.53,2.17 -2.3,5.26 -2.3,9.28c0,3.96 0.77,7.29 2.3,9.98zm28.84,-38.08l0,44.8l-8.45,0l0,-44.8l8.45,0zm16.82,44.8l-6.72,0c-1.88,-2.39 -3.16,-4.78 -3.84,-7.17c-0.69,-2.39 -1.03,-5.37 -1.03,-8.96l0,-16.57l8.52,0l0,17.21c0,3.88 0.76,6.81 2.3,8.77l5.95,0l0,-25.98l8.51,0l0,32.7l-6.72,0l-1.15,-2.3c-1.62,1.53 -3.56,2.3 -5.82,2.3zm21.09,-14.27l0,-11.71l-4.42,0l0,-6.72l4.42,0l0,-8.9l8.51,0l0,8.9l5.25,0l0,6.72l-5.25,0l0,13.76c0,2.6 0.45,4.43 1.35,5.5l3.9,0l0,6.72l-9.09,0c-2.26,-2.09 -3.63,-4.35 -4.09,-6.78c-0.39,-2.05 -0.58,-4.55 -0.58,-7.49zm36.85,14.27l-13.95,0c-4.27,-3.97 -6.4,-9.39 -6.4,-16.26c0,-3.45 0.46,-6.46 1.4,-9.02c0.99,-2.56 2.52,-5.04 4.61,-7.42l14.98,0c2.22,2.56 3.73,5.05 4.54,7.48c0.81,2.39 1.22,5.38 1.22,8.96c0,6.87 -2.13,12.29 -6.4,16.26zm-9.41,-6.72l4.86,0c1.54,-2.99 2.31,-6.38 2.31,-10.18c0,-3.79 -0.79,-6.82 -2.37,-9.08l-4.8,0c-1.54,2.17 -2.3,5.26 -2.3,9.28c0,3.96 0.76,7.29 2.3,9.98zm20.45,6.72l0,-32.7l6.08,0l1.6,3.45c1.71,-2.3 3.87,-3.45 6.47,-3.45l2.49,0l0,8.57l-8.12,0l0,24.13l-8.52,0zm30.88,0l0,-44.8l22.98,0l0,7.68l-14.21,0l0,10.69l12.67,0l0,7.42l-12.67,0l0,11.59l14.47,0l0,7.42l-23.24,0zm31.07,-32.7l14.15,0l0,6.72l-9.99,0l6.08,9.02c2.73,3.88 4.25,6.55 4.55,8c0.17,0.68 0.25,1.39 0.25,2.11c0,3.03 -1.13,5.31 -3.39,6.85l-16.32,0l0,-6.72l11.71,0l-6.85,-10.05c-0.29,-0.47 -0.76,-1.13 -1.4,-1.98c-0.6,-0.86 -1.07,-1.54 -1.41,-2.05c-0.34,-0.56 -0.58,-0.96 -0.71,-1.22c-0.12,-0.25 -0.3,-0.57 -0.51,-0.96c-0.21,-0.42 -0.36,-0.78 -0.45,-1.08c-0.17,-0.81 -0.25,-1.48 -0.25,-1.99c0,-3.11 1.51,-5.33 4.54,-6.65zm21.1,18.43l0,-11.71l-4.42,0l0,-6.72l4.42,0l0,-8.9l8.51,0l0,8.9l5.25,0l0,6.72l-5.25,0l0,13.76c0,2.6 0.45,4.43 1.34,5.5l3.91,0l0,6.72l-9.09,0c-2.26,-2.09 -3.63,-4.35 -4.1,-6.78c-0.38,-2.05 -0.57,-4.55 -0.57,-7.49zm18.08,14.27l0,-32.7l6.08,0l1.6,3.45c1.7,-2.3 3.86,-3.45 6.46,-3.45l2.5,0l0,8.57l-8.13,0l0,24.13l-8.51,0zm33.91,-25.98l-4.8,0c-0.64,0.76 -1.18,1.83 -1.6,3.2c-0.39,1.36 -0.58,2.68 -0.58,3.96l9.15,0c0.09,-1.28 -0.08,-2.6 -0.51,-3.96c-0.43,-1.41 -0.98,-2.48 -1.66,-3.2zm8.7,19.26l0,6.72l-16.26,0c-2.98,-2 -5.1,-4.48 -6.33,-7.42c-1.2,-2.99 -1.79,-6 -1.79,-9.03c0,-7 2.64,-12.41 7.93,-16.25l10.37,0c2.86,2.09 4.8,4.31 5.82,6.65c1.03,2.35 1.54,4.72 1.54,7.11c0,2.39 -0.19,4.43 -0.58,6.14l-15.93,0c0.13,0.98 0.49,2.11 1.09,3.39c0.64,1.24 1.32,2.14 2.04,2.69l12.1,0zm14.02,-38.08l0,44.8l-8.44,0l0,-44.8l8.44,0zm13.94,0l0,44.8l-8.45,0l0,-44.8l8.45,0zm20.91,30.02l-6.84,0c-0.9,1.11 -1.35,2.49 -1.35,4.16c0,1.66 0.47,2.96 1.41,3.9l6.78,0l0,-8.06zm-13.76,-17.92l15.88,0c2.56,1.53 4.24,3.3 5.05,5.31c0.81,1.96 1.22,4.65 1.22,8.06l0,9.6c0,3.54 0.08,6.79 0.25,9.73l-7.29,0l-1.15,-2.3c-1.67,1.53 -4.02,2.3 -7.04,2.3l-4.04,0c-3.62,-2.39 -5.44,-5.82 -5.44,-10.3c0,-4.53 1.86,-8.09 5.57,-10.69l6.02,0c1.66,0 3.22,0.51 4.67,1.53l0,-3.2c0,-1.66 -0.73,-2.77 -2.18,-3.32l-11.52,0l0,-6.72z" fill="white" id="svg_24"/>
   <path d="m422.61,351.73l-29.5,-61.46c-2.63,-5.47 -10.59,-5.47 -13.22,0l-29.5,61.46l-66.68,9.97c-5.88,0.87 -8.28,7.88 -4.13,12.04l48.5,48.61l-11.37,68.17c-0.98,5.89 5.4,10.29 10.74,7.41l59.05,-31.93l59.05,31.93c5.34,2.88 11.72,-1.52 10.74,-7.41l-11.37,-68.17l48.5,-48.61c4.15,-4.16 1.75,-11.17 -4.13,-12.04l-66.68,-9.97z" fill="#ffce8b" id="svg_25" stroke="#FFA730" stroke-linecap="round" stroke-linejoin="round" stroke-width="33.33"/>
  </g>
 </g>
</svg>