<svg width="800" height="800" viewBox="0 0 800 800" fill="none" xmlns="http://www.w3.org/2000/svg">
<rect width="800" height="800"/>
<g clip-path="url(#clip0_0_1)">
<mask id="mask0_0_1" style="mask-type:luminance" maskUnits="userSpaceOnUse" x="0" y="0" width="800" height="800">
<path d="M800 0H0V800H800V0Z" fill="white"/>
</mask>
<g mask="url(#mask0_0_1)">
<path d="M800 232.55C800 259.96 785 283.86 762.75 296.48C752.07 302.57 739.7 306.03 726.52 306.03H523.8V217.3H784.76C788.96 217.3 792.77 219.01 795.54 221.76C798.29 224.53 800 228.34 800 232.55Z" fill="#B6DCFF" stroke="black" stroke-width="1.56"/>
<path d="M762.85 292.23C762.85 293.65 762.82 295.07 762.75 296.48C752.06 302.57 739.7 306.03 726.52 306.03H523.8V254.46H725.07C745.9 254.46 762.85 271.4 762.85 292.23Z" fill="#8ECBFD" stroke="black" stroke-width="1.56"/>
<path d="M740.31 292.23C740.31 319.64 725.31 343.53 703.07 356.15C692.38 362.24 680.02 365.7 666.83 365.7H523.8V276.99H725.07C729.27 276.99 733.09 278.7 735.86 281.45C738.61 284.22 740.31 288.03 740.31 292.23Z" fill="#DAEDFF" stroke="black" stroke-width="1.56"/>
<path d="M703.16 351.92C703.16 353.34 703.13 354.75 703.07 356.15C692.38 362.24 680.02 365.7 666.83 365.7H523.8V314.14H665.38C686.21 314.14 703.16 331.09 703.16 351.92Z" fill="#B6DCFF" stroke="black" stroke-width="1.56"/>
<path d="M665.38 336.67H523.8V425.39H607.15C647.73 425.39 680.63 392.5 680.63 351.92C680.63 343.5 673.8 336.67 665.38 336.67Z" fill="#DAEDFF" stroke="black" stroke-width="1.56"/>
<path d="M276.2 217.3V306.03H73.48C60.3 306.03 47.94 302.57 37.25 296.48C15 283.86 0 259.96 0 232.55C0 228.34 1.71 224.53 4.46 221.76C7.23 219.01 11.04 217.3 15.24 217.3H276.2Z" fill="#B6DCFF" stroke="black" stroke-width="1.56"/>
<path d="M276.2 254.46V306.03H73.48C60.3 306.03 47.94 302.57 37.25 296.48C37.18 295.07 37.15 293.65 37.15 292.23C37.15 271.4 54.1 254.46 74.93 254.46H276.2Z" fill="#8ECBFD" stroke="black" stroke-width="1.56"/>
<path d="M276.2 276.99V365.7H133.17C119.98 365.7 107.62 362.24 96.93 356.15C74.69 343.53 59.69 319.64 59.69 292.23C59.69 288.03 61.39 284.22 64.15 281.45C66.91 278.69 70.73 276.99 74.93 276.99H276.2Z" fill="#DAEDFF" stroke="black" stroke-width="1.56"/>
<path d="M276.2 314.14V365.7H133.17C119.98 365.7 107.62 362.24 96.93 356.15C96.87 354.75 96.84 353.34 96.84 351.92C96.84 331.09 113.79 314.14 134.62 314.14H276.2Z" fill="#B6DCFF" stroke="black" stroke-width="1.56"/>
<path d="M134.62 336.67H276.2V425.39H192.85C152.27 425.39 119.37 392.5 119.37 351.92C119.37 343.5 126.2 336.67 134.62 336.67Z" fill="#DAEDFF" stroke="black" stroke-width="1.56"/>
<path d="M400 565.32C520.33 565.32 617.88 467.77 617.88 347.44C617.88 227.11 520.33 129.56 400 129.56C279.67 129.56 182.12 227.11 182.12 347.44C182.12 467.77 279.67 565.32 400 565.32Z" fill="#FFB54E" stroke="black" stroke-width="1.56"/>
<path d="M400.37 533.12C502.91 533.12 586.04 449.99 586.04 347.44C586.04 244.89 502.91 161.76 400.37 161.76C297.82 161.76 214.69 244.89 214.69 347.44C214.69 449.99 297.82 533.12 400.37 533.12Z" fill="#FF9A1B" stroke="black" stroke-width="1.56"/>
<path d="M400 509.37C489.43 509.37 561.93 436.87 561.93 347.44C561.93 258.01 489.43 185.51 400 185.51C310.57 185.51 238.07 258.01 238.07 347.44C238.07 436.87 310.57 509.37 400 509.37Z" fill="#FFCE8B" stroke="black" stroke-width="1.56"/>
<path d="M562.3 347.44C562.3 436.87 489.79 509.38 400.37 509.38C395.4 509.38 390.48 509.15 385.62 508.71C468.13 501.26 532.79 431.89 532.79 347.44C532.79 262.98 468.13 193.63 385.62 186.18C390.48 185.74 395.4 185.52 400.37 185.52C489.79 185.52 562.3 258.01 562.3 347.44Z" fill="#FFB54E" stroke="black" stroke-width="1.56"/>
<path d="M767.48 612.43L794.54 643.35C803.78 653.91 796.28 670.44 782.24 670.44H594.73C585.71 670.44 578.39 663.13 578.39 654.1V550.77H783.63C797.44 550.77 805.02 566.83 796.24 577.49L767.48 612.43Z" fill="#E84649" stroke="black" stroke-width="1.56"/>
<path d="M675.53 550.77V577.45C675.53 599.06 657.96 616.66 636.32 616.66H578.39V550.77H675.53Z" fill="#D73337" stroke="black" stroke-width="1.56"/>
<path d="M221.61 550.77V654.11C221.61 663.13 214.29 670.44 205.27 670.44H17.76C3.71997 670.44 -3.78003 653.91 5.45997 643.35L32.52 612.43L3.75997 577.49C-5.02003 566.83 2.55997 550.77 16.37 550.77H221.61Z" fill="#E84649" stroke="black" stroke-width="1.56"/>
<path d="M124.47 550.77H221.61V616.66H163.68C142.04 616.66 124.47 599.06 124.47 577.45V550.77Z" fill="#D73337" stroke="black" stroke-width="1.56"/>
<path d="M636.33 593.79H163.67C154.65 593.79 147.33 586.47 147.33 577.45V506.64C147.33 497.61 154.65 490.3 163.67 490.3H636.33C645.36 490.3 652.67 497.61 652.67 506.64V577.45C652.67 586.47 645.36 593.79 636.33 593.79Z" fill="#ED6264" stroke="black" stroke-width="1.56"/>
<path d="M652.66 506.64V577.45C652.66 586.47 645.36 593.79 636.32 593.79H597.98C607.01 593.79 614.32 586.47 614.32 577.45V506.64C614.32 497.61 607.01 490.3 597.98 490.3H636.32C645.36 490.3 652.66 497.61 652.66 506.64Z" fill="#E84649" stroke="black" stroke-width="1.56"/>
</g>
<path d="M483.211 409.801L434.578 360.939L429.813 365.735L421.569 357.435C430.755 343.777 435.376 327.91 435.364 312.068C435.376 291.32 427.5 270.518 411.748 254.705C396.036 238.896 375.331 230.988 354.67 231C334.034 230.988 313.328 238.913 297.608 254.705C281.876 270.518 273.987 291.299 274 312.056C273.988 332.804 281.876 353.598 297.596 369.394C313.34 385.208 334.034 393.12 354.678 393.12C370.451 393.12 386.257 388.469 399.856 379.261L408.104 387.547L403.348 392.314L451.98 441.176C455.808 445.042 460.909 447 465.953 447C470.975 447 476.076 445.042 479.916 441.176L483.211 437.87C487.047 434.016 488.992 428.892 489 423.825C489 418.775 487.047 413.659 483.211 409.801ZM354.678 382.222C336.76 382.222 318.887 375.395 305.26 361.688C291.636 348.005 284.832 330.058 284.832 312.057C284.832 294.051 291.644 276.1 305.267 262.413C318.895 248.726 336.76 241.883 354.67 241.883C372.592 241.883 390.464 248.718 404.088 262.413C417.72 276.1 424.52 294.051 424.528 312.057C424.52 330.058 417.72 348.005 404.097 361.688C390.465 375.395 372.592 382.222 354.678 382.222ZM407.097 373.692C408.681 372.331 410.254 370.917 411.768 369.407C413.275 367.893 414.671 366.314 416.038 364.711L423.431 372.146L414.495 381.128L407.097 373.692ZM475.54 430.171L472.257 433.469C470.496 435.234 468.249 436.081 465.944 436.097C463.644 436.097 461.4 435.233 459.64 433.482L418.674 392.322L434.579 376.353L475.54 417.504C477.296 419.277 478.144 421.526 478.144 423.826C478.144 426.145 477.288 428.407 475.54 430.171Z" fill="#FFA730"/>
<path d="M390.514 276.041C380.644 266.13 367.639 261.154 354.678 261.162C341.726 261.162 328.72 266.13 318.838 276.041C308.968 285.965 304.015 299.035 304.027 312.056C304.015 325.073 308.968 338.147 318.838 348.042C328.72 357.973 341.726 362.946 354.67 362.946C367.631 362.946 380.636 357.973 390.514 348.05C400.397 338.126 405.338 325.073 405.338 312.056C405.35 299.036 400.396 285.978 390.514 276.041ZM384.124 341.63C376.002 349.789 365.363 353.873 354.67 353.861C343.99 353.861 333.35 349.789 325.228 341.63C317.11 333.475 313.066 322.794 313.066 312.056C313.066 301.322 317.11 290.633 325.228 282.465C333.363 274.31 343.99 270.242 354.678 270.23C365.363 270.242 376.002 274.322 384.124 282.465C392.242 290.633 396.291 301.322 396.299 312.056C396.299 322.794 392.25 333.475 384.124 341.63Z" fill="#FFA730"/>
<path d="M175.392 546.52H175.136H175.392L178.784 532.504L181.536 522.2H189.536L192.416 567H184.032L182.816 542.552H182.496L177.888 560.6H172.64L168.032 542.552H167.712L166.496 567H158.112L160.992 522.2H168.992L171.744 532.504L175.136 546.52H175.392ZM212.676 552.216H205.828C204.932 553.325 204.484 554.712 204.484 556.376C204.484 558.04 204.953 559.341 205.892 560.28H212.676V552.216ZM198.916 534.296H214.788C217.348 535.832 219.033 537.603 219.844 539.608C220.655 541.571 221.06 544.259 221.06 547.672V557.272C221.06 560.813 221.145 564.056 221.316 567H214.02L212.868 564.696C211.204 566.232 208.857 567 205.828 567H201.796C198.169 564.611 196.356 561.176 196.356 556.696C196.356 552.173 198.212 548.611 201.924 546.008H207.94C209.604 546.008 211.161 546.52 212.612 547.544V544.344C212.612 542.68 211.887 541.571 210.436 541.016H198.916V534.296ZM241.349 541.016H236.549C235.909 541.784 235.375 542.851 234.949 544.216C234.565 545.581 234.373 546.904 234.373 548.184H243.525C243.61 546.904 243.439 545.581 243.013 544.216C242.586 542.808 242.031 541.741 241.349 541.016ZM250.053 560.28V567H233.797C230.81 564.995 228.698 562.52 227.461 559.576C226.266 556.589 225.669 553.581 225.669 550.552C225.669 543.555 228.314 538.136 233.605 534.296H243.973C246.831 536.387 248.773 538.605 249.797 540.952C250.821 543.299 251.333 545.667 251.333 548.056C251.333 550.445 251.141 552.493 250.757 554.2H234.821C234.949 555.181 235.311 556.312 235.909 557.592C236.549 558.829 237.231 559.725 237.957 560.28H250.053ZM257.827 534.296H271.971V541.016H261.987L268.067 550.04C270.798 553.923 272.312 556.589 272.611 558.04C272.782 558.723 272.867 559.427 272.867 560.152C272.867 563.181 271.736 565.464 269.475 567H253.155V560.28H264.867L258.019 550.232C257.72 549.763 257.251 549.101 256.611 548.248C256.014 547.395 255.544 546.712 255.203 546.2C254.862 545.645 254.627 545.24 254.499 544.984C254.371 544.728 254.2 544.408 253.987 544.024C253.774 543.597 253.624 543.235 253.539 542.936C253.368 542.125 253.283 541.464 253.283 540.952C253.283 537.837 254.798 535.619 257.827 534.296ZM278.922 552.728V541.016H274.506V534.296H278.922V525.4H287.434V534.296H292.682V541.016H287.434V554.776C287.434 557.379 287.882 559.213 288.778 560.28H292.682V567H283.594C281.333 564.909 279.967 562.648 279.498 560.216C279.114 558.168 278.922 555.672 278.922 552.728ZM297.004 567V534.296H303.084L304.684 537.752C306.39 535.448 308.545 534.296 311.148 534.296H313.644V542.872H305.516V567H297.004ZM335.583 567H321.631C317.364 563.032 315.231 557.613 315.231 550.744C315.231 547.288 315.7 544.28 316.639 541.72C317.62 539.16 319.156 536.685 321.247 534.296H336.223C338.442 536.856 339.956 539.352 340.767 541.784C341.578 544.173 341.983 547.16 341.983 550.744C341.983 557.613 339.85 563.032 335.583 567ZM326.175 560.28H331.039C332.575 557.293 333.343 553.901 333.343 550.104C333.343 546.307 332.554 543.277 330.975 541.016H326.175C324.639 543.192 323.871 546.285 323.871 550.296C323.871 554.264 324.639 557.592 326.175 560.28ZM381.583 567H375.119L373.967 564.696C373.028 565.549 372.132 566.147 371.279 566.488C370.468 566.829 369.231 567 367.567 567H361.999C360.121 565.208 358.628 562.861 357.519 559.96C356.452 557.059 355.919 553.816 355.919 550.232C355.919 546.605 356.452 543.533 357.519 541.016C358.628 538.499 360.185 536.259 362.191 534.296H367.695C369.956 534.296 371.748 534.893 373.071 536.088V522.2H381.583V567ZM373.071 541.016H366.927C365.348 543.704 364.559 547.011 364.559 550.936C364.559 554.819 365.327 557.933 366.863 560.28H373.071V541.016ZM401.849 541.016H397.049C396.409 541.784 395.875 542.851 395.449 544.216C395.065 545.581 394.873 546.904 394.873 548.184H404.025C404.11 546.904 403.939 545.581 403.513 544.216C403.086 542.808 402.531 541.741 401.849 541.016ZM410.553 560.28V567H394.297C391.31 564.995 389.198 562.52 387.961 559.576C386.766 556.589 386.169 553.581 386.169 550.552C386.169 543.555 388.814 538.136 394.105 534.296H404.473C407.331 536.387 409.273 538.605 410.297 540.952C411.321 543.299 411.833 545.667 411.833 548.056C411.833 550.445 411.641 552.493 411.257 554.2H395.321C395.449 555.181 395.811 556.312 396.409 557.592C397.049 558.829 397.731 559.725 398.457 560.28H410.553ZM424.575 522.2V567H416.127V522.2H424.575ZM449.339 559.576H455.099C456.293 558.083 457.232 555.907 457.915 553.048C458.64 550.189 459.003 547.352 459.003 544.536C459.003 537.837 457.744 532.952 455.227 529.88H449.339V559.576ZM440.635 567V522.2H459.195C465.253 527.576 468.283 534.872 468.283 544.088C468.283 553.261 465.445 560.899 459.771 567H440.635ZM487.724 541.016H482.924C482.284 541.784 481.75 542.851 481.324 544.216C480.94 545.581 480.748 546.904 480.748 548.184H489.9C489.985 546.904 489.814 545.581 489.388 544.216C488.961 542.808 488.406 541.741 487.724 541.016ZM496.428 560.28V567H480.172C477.185 564.995 475.073 562.52 473.836 559.576C472.641 556.589 472.044 553.581 472.044 550.552C472.044 543.555 474.689 538.136 479.98 534.296H490.348C493.206 536.387 495.148 538.605 496.172 540.952C497.196 543.299 497.708 545.667 497.708 548.056C497.708 550.445 497.516 552.493 497.132 554.2H481.196C481.324 555.181 481.686 556.312 482.284 557.592C482.924 558.829 483.606 559.725 484.332 560.28H496.428ZM503.297 552.728V541.016H498.881V534.296H503.297V525.4H511.809V534.296H517.057V541.016H511.809V554.776C511.809 557.379 512.257 559.213 513.153 560.28H517.057V567H507.969C505.708 564.909 504.342 562.648 503.873 560.216C503.489 558.168 503.297 555.672 503.297 552.728ZM536.426 552.216H529.578C528.682 553.325 528.234 554.712 528.234 556.376C528.234 558.04 528.703 559.341 529.642 560.28H536.426V552.216ZM522.666 534.296H538.538C541.098 535.832 542.783 537.603 543.594 539.608C544.405 541.571 544.81 544.259 544.81 547.672V557.272C544.81 560.813 544.895 564.056 545.066 567H537.77L536.618 564.696C534.954 566.232 532.607 567 529.578 567H525.546C521.919 564.611 520.106 561.176 520.106 556.696C520.106 552.173 521.962 548.611 525.674 546.008H531.69C533.354 546.008 534.911 546.52 536.362 547.544V544.344C536.362 542.68 535.637 541.571 534.186 541.016H522.666V534.296ZM558.763 522.2V567H550.315V522.2H558.763ZM572.7 522.2V567H564.252V522.2H572.7ZM592.974 541.016H588.174C587.534 541.784 587 542.851 586.574 544.216C586.19 545.581 585.998 546.904 585.998 548.184H595.15C595.235 546.904 595.064 545.581 594.638 544.216C594.211 542.808 593.656 541.741 592.974 541.016ZM601.678 560.28V567H585.422C582.435 564.995 580.323 562.52 579.086 559.576C577.891 556.589 577.294 553.581 577.294 550.552C577.294 543.555 579.939 538.136 585.23 534.296H595.598C598.456 536.387 600.398 538.605 601.422 540.952C602.446 543.299 602.958 545.667 602.958 548.056C602.958 550.445 602.766 552.493 602.382 554.2H586.446C586.574 555.181 586.936 556.312 587.534 557.592C588.174 558.829 588.856 559.725 589.582 560.28H601.678Z" fill="white"/>
</g>
<defs>
<clipPath id="clip0_0_1">
<rect width="800" height="800" fill="white"/>
</clipPath>
</defs>
</svg>
