<?xml version="1.0"?>
<svg width="800" height="800" xmlns="http://www.w3.org/2000/svg" xmlns:svg="http://www.w3.org/2000/svg">
 <defs>
  <clipPath id="clip0_0_1">
   <rect fill="white" height="800" id="svg_1" width="800"/>
  </clipPath>
 </defs>
 <g class="layer">
  <title>Layer 1</title>
  <rect fill="none" height="800" id="svg_2" width="800"/>
  <g clip-path="url(#clip0_0_1)" id="svg_3">
   <path d="m800,232.55c0,27.41 -15,51.31 -37.25,63.93c-10.68,6.09 -23.05,9.55 -36.23,9.55l-202.72,0l0,-88.73l260.96,0c4.2,0 8.01,1.71 10.78,4.46c2.75,2.77 4.46,6.58 4.46,10.79z" fill="#B6DCFF" id="svg_4" stroke="black" stroke-width="1.56"/>
   <path d="m762.85,292.23c0,1.42 -0.03,2.84 -0.1,4.25c-10.69,6.09 -23.05,9.55 -36.23,9.55l-202.72,0l0,-51.57l201.27,0c20.83,0 37.78,16.94 37.78,37.77z" fill="#8ECBFD" id="svg_5" stroke="black" stroke-width="1.56"/>
   <path d="m740.31,292.23c0,27.41 -15,51.3 -37.24,63.92c-10.69,6.09 -23.05,9.55 -36.24,9.55l-143.03,0l0,-88.71l201.27,0c4.2,0 8.02,1.71 10.79,4.46c2.75,2.77 4.45,6.58 4.45,10.78z" fill="#DAEDFF" id="svg_6" stroke="black" stroke-width="1.56"/>
   <path d="m703.16,351.92c0,1.42 -0.03,2.83 -0.09,4.23c-10.69,6.09 -23.05,9.55 -36.24,9.55l-143.03,0l0,-51.56l141.58,0c20.83,0 37.78,16.95 37.78,37.78z" fill="#B6DCFF" id="svg_7" stroke="black" stroke-width="1.56"/>
   <path d="m665.38,336.67l-141.58,0l0,88.72l83.35,0c40.58,0 73.48,-32.89 73.48,-73.47c0,-8.42 -6.83,-15.25 -15.25,-15.25z" fill="#DAEDFF" id="svg_8" stroke="black" stroke-width="1.56"/>
   <path d="m276.2,217.3l0,88.73l-202.72,0c-13.18,0 -25.54,-3.46 -36.23,-9.55c-22.25,-12.62 -37.25,-36.52 -37.25,-63.93c0,-4.21 1.71,-8.02 4.46,-10.79c2.77,-2.75 6.58,-4.46 10.78,-4.46l260.96,0z" fill="#B6DCFF" id="svg_9" stroke="black" stroke-width="1.56"/>
   <path d="m276.2,254.46l0,51.57l-202.72,0c-13.18,0 -25.54,-3.46 -36.23,-9.55c-0.07,-1.41 -0.1,-2.83 -0.1,-4.25c0,-20.83 16.95,-37.77 37.78,-37.77l201.27,0z" fill="#8ECBFD" id="svg_10" stroke="black" stroke-width="1.56"/>
   <path d="m276.2,276.99l0,88.71l-143.03,0c-13.19,0 -25.55,-3.46 -36.24,-9.55c-22.24,-12.62 -37.24,-36.51 -37.24,-63.92c0,-4.2 1.7,-8.01 4.46,-10.78c2.76,-2.76 6.58,-4.46 10.78,-4.46l201.27,0l0,0z" fill="#DAEDFF" id="svg_11" stroke="black" stroke-width="1.56"/>
   <path d="m276.2,314.14l0,51.56l-143.03,0c-13.19,0 -25.55,-3.46 -36.24,-9.55c-0.06,-1.4 -0.09,-2.81 -0.09,-4.23c0,-20.83 16.95,-37.78 37.78,-37.78l141.58,0z" fill="#B6DCFF" id="svg_12" stroke="black" stroke-width="1.56"/>
   <path d="m134.62,336.67l141.58,0l0,88.72l-83.35,0c-40.58,0 -73.48,-32.89 -73.48,-73.47c0,-8.42 6.83,-15.25 15.25,-15.25z" fill="#DAEDFF" id="svg_13" stroke="black" stroke-width="1.56"/>
   <path d="m400,565.32c120.33,0 217.88,-97.55 217.88,-217.88c0,-120.33 -97.55,-217.88 -217.88,-217.88c-120.33,0 -217.88,97.55 -217.88,217.88c0,120.33 97.55,217.88 217.88,217.88z" fill="#FFB54E" id="svg_14" stroke="black" stroke-width="1.56"/>
   <path d="m400.37,533.12c102.54,0 185.67,-83.13 185.67,-185.68c0,-102.55 -83.13,-185.68 -185.67,-185.68c-102.55,0 -185.68,83.13 -185.68,185.68c0,102.55 83.13,185.68 185.68,185.68z" fill="#FF9A1B" id="svg_15" stroke="black" stroke-width="1.56"/>
   <path d="m400,509.37c89.43,0 161.93,-72.5 161.93,-161.93c0,-89.43 -72.5,-161.93 -161.93,-161.93c-89.43,0 -161.93,72.5 -161.93,161.93c0,89.43 72.5,161.93 161.93,161.93z" fill="#FFCE8B" id="svg_16" stroke="black" stroke-width="1.56"/>
   <path d="m562.3,347.44c0,89.43 -72.51,161.94 -161.93,161.94c-4.97,0 -9.89,-0.23 -14.75,-0.67c82.51,-7.45 147.17,-76.82 147.17,-161.27c0,-84.46 -64.66,-153.81 -147.17,-161.26c4.86,-0.44 9.78,-0.66 14.75,-0.66c89.42,0 161.93,72.49 161.93,161.92z" fill="#FFB54E" id="svg_17" stroke="black" stroke-width="1.56"/>
   <path d="m767.48,612.43l27.06,30.92c9.24,10.56 1.74,27.09 -12.3,27.09l-187.51,0c-9.02,0 -16.34,-7.31 -16.34,-16.34l0,-103.33l205.24,0c13.81,0 21.39,16.06 12.61,26.72l-28.76,34.94z" fill="#E84649" id="svg_18" stroke="black" stroke-width="1.56"/>
   <path d="m675.53,550.77l0,26.68c0,21.61 -17.57,39.21 -39.21,39.21l-57.93,0l0,-65.89l97.14,0l0,0z" fill="#D73337" id="svg_19" stroke="black" stroke-width="1.56"/>
   <path d="m221.61,550.77l0,103.34c0,9.02 -7.32,16.33 -16.34,16.33l-187.51,0c-14.04,0 -21.54,-16.53 -12.3,-27.09l27.06,-30.92l-28.76,-34.94c-8.78,-10.66 -1.2,-26.72 12.61,-26.72l205.24,0z" fill="#E84649" id="svg_20" stroke="black" stroke-width="1.56"/>
   <path d="m124.47,550.77l97.14,0l0,65.89l-57.93,0c-21.64,0 -39.21,-17.6 -39.21,-39.21l0,-26.68z" fill="#D73337" id="svg_21" stroke="black" stroke-width="1.56"/>
   <path d="m636.33,593.79l-472.66,0c-9.02,0 -16.34,-7.32 -16.34,-16.34l0,-70.81c0,-9.03 7.32,-16.34 16.34,-16.34l472.66,0c9.03,0 16.34,7.31 16.34,16.34l0,70.81c0,9.02 -7.31,16.34 -16.34,16.34z" fill="#ED6264" id="svg_22" stroke="black" stroke-width="1.56"/>
   <path d="m652.66,506.64l0,70.81c0,9.02 -7.3,16.34 -16.34,16.34l-38.34,0c9.03,0 16.34,-7.32 16.34,-16.34l0,-70.81c0,-9.03 -7.31,-16.34 -16.34,-16.34l38.34,0c9.04,0 16.34,7.31 16.34,16.34z" fill="#E84649" id="svg_23" stroke="black" stroke-width="1.56"/>
   <path d="m234.39,550.52l-0.25,0l0.25,0l3.39,-14.02l2.76,-10.3l8,0l2.88,44.8l-8.39,0l-1.21,-24.45l-0.32,0l-4.61,18.05l-5.25,0l-4.61,-18.05l-0.32,0l-1.21,24.45l-8.39,0l2.88,-44.8l8,0l2.75,10.3l3.4,14.02l0.25,0zm37.29,5.7l-6.85,0c-0.9,1.11 -1.35,2.49 -1.35,4.16c0,1.66 0.47,2.96 1.41,3.9l6.79,0l0,-8.06zm-13.76,-17.92l15.87,0c2.56,1.53 4.24,3.3 5.05,5.31c0.81,1.96 1.22,4.65 1.22,8.06l0,9.6c0,3.54 0.08,6.79 0.26,9.73l-7.3,0l-1.15,-2.3c-1.67,1.53 -4.01,2.3 -7.04,2.3l-4.03,0c-3.63,-2.39 -5.44,-5.82 -5.44,-10.3c0,-4.53 1.85,-8.09 5.56,-10.69l6.02,0c1.66,0 3.22,0.51 4.67,1.53l0,-3.2c0,-1.66 -0.72,-2.77 -2.17,-3.32l-11.52,0l0,-6.72zm41.85,0l6.79,0c1.87,2.38 3.15,4.78 3.84,7.16c0.68,2.39 1.02,5.38 1.02,8.96l0,16.58l-8.51,0l0,-17.22c0,-4.05 -0.56,-6.97 -1.66,-8.76l-7.17,0l0,25.98l-8.52,0l0,-32.7l6.66,0l1.15,2.3c0.94,-0.85 1.82,-1.45 2.63,-1.79c0.85,-0.34 2.11,-0.51 3.77,-0.51zm36.38,32.7l-13.96,0c-4.26,-3.97 -6.4,-9.39 -6.4,-16.26c0,-3.45 0.47,-6.46 1.41,-9.02c0.98,-2.56 2.52,-5.04 4.61,-7.42l14.98,0c2.21,2.56 3.73,5.05 4.54,7.48c0.81,2.39 1.22,5.38 1.22,8.96c0,6.87 -2.14,12.29 -6.4,16.26zm-9.41,-6.72l4.86,0c1.54,-2.99 2.31,-6.38 2.31,-10.18c0,-3.79 -0.79,-6.82 -2.37,-9.08l-4.8,0c-1.54,2.17 -2.31,5.26 -2.31,9.28c0,3.96 0.77,7.29 2.31,9.98zm22.59,-25.98l14.14,0l0,6.72l-9.98,0l6.08,9.02c2.73,3.88 4.24,6.55 4.54,8c0.17,0.68 0.26,1.39 0.26,2.11c0,3.03 -1.13,5.31 -3.39,6.85l-16.33,0l0,-6.72l11.72,0l-6.85,-10.05c-0.3,-0.47 -0.77,-1.13 -1.41,-1.98c-0.6,-0.86 -1.07,-1.54 -1.41,-2.05c-0.34,-0.56 -0.57,-0.96 -0.7,-1.22c-0.13,-0.25 -0.3,-0.57 -0.51,-0.96c-0.22,-0.42 -0.37,-0.78 -0.45,-1.08c-0.17,-0.81 -0.26,-1.48 -0.26,-1.99c0,-3.11 1.52,-5.33 4.55,-6.65zm48.81,32.7l-1.34,-7.1l-10.11,0l-1.35,7.1l-8.7,0l8.64,-44.8l13.25,0l8.19,44.8l-8.58,0zm-6.52,-36.48l-2.5,14.91l-1.41,7.62l8,0l-1.47,-7.62l-2.5,-14.91l-0.12,0zm32.71,3.78l4.55,0l1.6,2.24c0.9,-0.81 1.75,-1.39 2.56,-1.73c0.85,-0.34 2.11,-0.51 3.77,-0.51l7.11,0c1.88,2.38 3.16,4.78 3.84,7.16c0.68,2.39 1.02,5.38 1.02,8.96l0,16.58l-8.51,0l0,-17.22c0,-3.92 -0.6,-6.84 -1.79,-8.76l-6.15,0c0.94,1.83 1.41,4.33 1.41,7.48l0,18.5l-8.51,0l0,-17.22c0,-4.05 -0.55,-6.97 -1.66,-8.76l-4.93,0l0,25.98l-8.51,0l0,-32.7l6.65,0l1.16,2.3c0.93,-0.85 1.81,-1.45 2.62,-1.79c0.85,-0.34 2.11,-0.51 3.77,-0.51zm29.67,32.7l0,-32.7l8.45,0l0,32.7l-8.45,0zm0,-44.8l8.45,0l0,8.64l-8.45,0l0,-8.64zm38.71,12.1l0,29.31c0,3.24 -0.43,5.84 -1.28,7.81c-0.81,1.96 -2.46,3.69 -4.93,5.18l-14.59,0l0,-6.66l10.94,0c1.07,-0.64 1.6,-1.66 1.6,-3.07l0,-3.77c-1.58,1.32 -4.09,1.98 -7.55,1.98l-4.67,0c-3.46,-4.14 -5.19,-8.94 -5.19,-14.4c0,-3.93 0.56,-7.13 1.67,-9.6c1.11,-2.52 2.73,-4.78 4.86,-6.78l4.74,0c2.77,0 4.97,0.89 6.59,2.68l1.15,-2.68l6.66,0zm-8.51,6.72l-6.21,0c-1.54,2.64 -2.31,5.69 -2.31,9.15c0,3.41 0.67,6.23 1.99,8.45l6.53,0l0,-17.6zm29.16,11.2l-6.84,0c-0.9,1.11 -1.35,2.49 -1.35,4.16c0,1.66 0.47,2.96 1.41,3.9l6.78,0l0,-8.06zm-13.76,-17.92l15.88,0c2.56,1.53 4.24,3.3 5.05,5.31c0.81,1.96 1.22,4.65 1.22,8.06l0,9.6c0,3.54 0.08,6.79 0.25,9.73l-7.29,0l-1.15,-2.3c-1.67,1.53 -4.01,2.3 -7.04,2.3l-4.04,0c-3.62,-2.39 -5.44,-5.82 -5.44,-10.3c0,-4.53 1.86,-8.09 5.57,-10.69l6.02,0c1.66,0 3.22,0.51 4.67,1.53l0,-3.2c0,-1.66 -0.73,-2.77 -2.18,-3.32l-11.52,0l0,-6.72zm30.85,0l14.15,0l0,6.72l-9.99,0l6.08,9.02c2.73,3.88 4.25,6.55 4.55,8c0.17,0.68 0.25,1.39 0.25,2.11c0,3.03 -1.13,5.31 -3.39,6.85l-16.32,0l0,-6.72l11.71,0l-6.85,-10.05c-0.29,-0.47 -0.76,-1.13 -1.4,-1.98c-0.6,-0.86 -1.07,-1.54 -1.41,-2.05c-0.34,-0.56 -0.58,-0.96 -0.71,-1.22c-0.12,-0.25 -0.29,-0.57 -0.51,-0.96c-0.21,-0.42 -0.36,-0.78 -0.45,-1.08c-0.17,-0.81 -0.25,-1.48 -0.25,-1.99c0,-3.11 1.51,-5.33 4.54,-6.65z" fill="white" id="svg_24"/>
   <path d="m498.68,326.75c-0.07,-2.88 -0.15,-5.77 -0.17,-8.66c-0.15,-13.81 -0.64,-25.1 -1.57,-35.52c-0.45,-5.43 -1.12,-10.28 -2.03,-15.03l0.13,0.81c-0.54,-3.83 -1.81,-7.24 -3.63,-10.15l0.04,0.07c-0.69,-0.98 -1.6,-1.72 -2.65,-2.11l-0.04,-0.01c-2.31,-1.1 -4.99,-1.74 -7.81,-1.74c-4.03,0 -7.8,1.31 -10.99,3.6l0.09,-0.07c-5.29,4.72 -8.84,11.77 -9.48,19.8l-0.01,0.11l-3.87,43.65c-2.22,-1.34 -4.85,-2.13 -7.64,-2.13c-6.54,0 -12.2,4.33 -14.91,10.64l-0.04,0.12l-11.79,23.48l-22.43,24.59c-0.39,0.42 -0.72,0.9 -0.99,1.43l-0.01,0.03l-6.32,12.55l-3.27,-2.17c-0.12,-0.08 -0.25,-0.07 -0.37,-0.14c-0.71,-0.4 -1.55,-0.63 -2.43,-0.63c-0.88,0 -1.72,0.23 -2.46,0.66l0.03,-0.02c-0.11,0.06 -0.24,0.06 -0.35,0.13l-0.63,0.41l-0.1,0.07l-2.55,1.68l-6.31,-12.55c-0.28,-0.56 -0.61,-1.04 -1,-1.46l-22.43,-24.59l-11.81,-23.48c-2.3,-4.93 -6.17,-8.6 -10.81,-10.18l-0.13,-0.04c-1.22,-0.38 -2.62,-0.61 -4.07,-0.61c-2.77,0 -5.39,0.82 -7.66,2.26l0.09,-0.05l-3.85,-43.55c-0.64,-8.17 -4.2,-15.26 -9.47,-19.96l-0.05,-0.05c-3.1,-2.22 -6.86,-3.53 -10.89,-3.53c-2.81,0 -5.49,0.63 -7.93,1.8l0.13,-0.06c-1.09,0.4 -2.01,1.14 -2.69,2.11l0,0.01c-1.83,2.94 -3.12,6.45 -3.65,10.26l-0.01,0.14c-0.76,3.85 -1.41,8.6 -1.8,13.43l-0.03,0.48c-0.94,10.44 -1.44,21.72 -1.57,35.51c-0.04,2.85 -0.11,5.7 -0.18,8.56c-0.14,2.74 -0.23,5.95 -0.23,9.18c0,6.11 0.3,12.15 0.88,18.08l-0.06,-0.72c2.72,21.63 12.03,40.32 25.47,53.68l0.1,0.1c7.95,7.23 14.97,15.13 21.2,23.8l0.18,0.27l-4.53,3.01c-1.71,1.15 -2.85,3.26 -2.85,5.66c0,1.21 0.28,2.34 0.78,3.31l-0.02,-0.04l12.19,24.25c0.75,1.48 1.97,2.58 3.42,3.03l0.04,0.01c0.43,0.14 0.93,0.22 1.45,0.22l0.02,0l0.01,0c1.04,0 2.02,-0.32 2.87,-0.89l-0.03,0.02l51.3,-34.01l51.28,34.01c0.81,0.55 1.79,0.87 2.83,0.87l0.02,0c0,0 0.01,0 0.03,0c0.51,0 1.01,-0.08 1.48,-0.24l-0.04,0.01c1.49,-0.46 2.71,-1.56 3.46,-3.01l0.01,-0.04l12.19,-24.25c0.48,-0.94 0.76,-2.06 0.76,-3.26c0,-2.42 -1.14,-4.52 -2.83,-5.65l-0.03,-0.02l-4.53,-3c6.47,-9 13.53,-16.94 21.26,-23.97l0.29,-0.25c13.46,-13.43 22.7,-32.07 25.33,-53.15l0.05,-0.46c0.53,-5.22 0.83,-11.27 0.83,-17.4c0,-3.18 -0.08,-6.34 -0.24,-9.47l0.02,0.43l0.01,-0.01zm-190.97,70.13c-11.33,-11.45 -19.15,-27.21 -21.47,-45.04l-0.05,-0.41c-0.46,-4.69 -0.72,-10.13 -0.72,-15.64c0,-3.08 0.09,-6.13 0.25,-9.16l-0.02,0.42c0.08,-2.94 0.16,-5.88 0.18,-8.81c0.13,-13.38 0.61,-24.28 1.51,-34.3c0.39,-4.83 0.98,-9.16 1.79,-13.4l-0.12,0.72c0.2,-1.03 0.45,-2.3 0.75,-3.31c0.75,-0.26 1.62,-0.41 2.51,-0.41c1.57,0 3.05,0.47 4.32,1.29l-0.04,-0.03c2.53,2.58 4.22,6.22 4.52,10.31l0,0.07l5.41,61.2c0.09,0.97 0.35,1.86 0.75,2.63l-0.01,-0.03l3.05,6.07l21.38,42.52c0.99,2.02 2.84,3.36 4.97,3.36c3.14,0 5.7,-2.93 5.7,-6.54c0,-1.24 -0.31,-2.4 -0.82,-3.4l0.01,0.03l-21.38,-42.52c-2.4,-4.79 -0.98,-8 1.17,-9.42c2.09,-1.42 5.27,-1.23 7.67,3.56l12.22,24.29c0.28,0.56 0.62,1.04 1,1.46l22.42,24.6l5.9,11.74l-38.81,25.72c-7.13,-10.35 -15.03,-19.41 -23.76,-27.32l-0.31,-0.26l0.03,0.01zm130.84,58.13l-49.17,-32.6c-0.12,-0.08 -0.26,-0.08 -0.39,-0.15c-0.44,-0.26 -0.96,-0.46 -1.5,-0.58l-0.03,-0.01c-0.19,-0.02 -0.41,-0.05 -0.64,-0.05c-0.11,-0.01 -0.23,-0.01 -0.35,-0.01c-0.4,0 -0.8,0.06 -1.18,0.14l0.04,-0.01c-0.28,0.09 -0.52,0.18 -0.75,0.28l0.04,-0.02c-0.35,0.1 -0.65,0.21 -0.94,0.35l0.04,-0.01l-49.27,32.66l-6.49,-12.91l58.55,-38.8l58.55,38.8l-6.51,12.92zm48.24,-103.58c-2.33,18.15 -10.08,33.86 -21.25,45.2l-0.07,0.07c-9.1,8.23 -17.05,17.35 -24.01,27.42l-0.22,0.33l-38.82,-25.71l5.91,-11.74l22.43,-24.61c0.38,-0.41 0.72,-0.89 0.99,-1.42l0.02,-0.03l12.18,-24.29c0.85,-1.93 2.28,-3.4 4.03,-4.13l0.05,-0.01c0.36,-0.12 0.78,-0.18 1.2,-0.18c0.89,0 1.73,0.28 2.45,0.77l-0.03,-0.02c2.14,1.42 3.57,4.63 1.14,9.42l-21.36,42.52c-0.49,0.94 -0.78,2.08 -0.78,3.3c0,3.62 2.55,6.54 5.7,6.54c2.11,0 3.95,-1.31 4.94,-3.27l0.01,-0.03l24.42,-48.59c0.39,-0.75 0.66,-1.63 0.73,-2.58l0,-0.03l5.45,-61.31c0.33,-4.08 1.98,-7.66 4.45,-10.22l0.01,0c1.24,-0.82 2.73,-1.29 4.31,-1.29c0.9,0 1.76,0.15 2.58,0.44l-0.06,-0.02c0.27,0.93 0.55,2.13 0.77,3.35l0.04,0.23c0.67,3.44 1.24,7.68 1.58,11.99l0.03,0.41c0.89,10 1.38,20.89 1.51,34.3c0.03,2.98 0.1,5.95 0.17,8.92c0.15,2.62 0.24,5.67 0.24,8.74c0,5.47 -0.27,10.87 -0.79,16.19l0.05,-0.65l0,-0.01z" fill="#FFA730" id="svg_25"/>
  </g>
 </g>
</svg>